<?xml version="1.0" encoding="UTF-8"?>
<svg id="Layer_2" data-name="Layer 2" xmlns="http://www.w3.org/2000/svg" viewBox="0 0 37.57 53.68">
  <defs>
    <style>
      .cls-1 {
        fill: #fff;
        stroke-width: 0px;
      }
    </style>
  </defs>
  <g id="Layer_1-2" data-name="Layer 1">
    <path id="primary" class="cls-1" d="m13.42,53.68c-7.41,0-13.42-6.01-13.42-13.42v-21.47C0,8.41,8.41,0,18.79,0s18.79,8.41,18.79,18.79v13.42c0,1.48-1.2,2.68-2.68,2.68s-2.68-1.2-2.68-2.68v-13.42c0-7.41-6.01-13.42-13.42-13.42s-13.42,6.01-13.42,13.42v21.47c0,4.45,3.6,8.05,8.05,8.05s8.05-3.6,8.05-8.05v-21.47c0-1.48-1.2-2.68-2.68-2.68s-2.68,1.2-2.68,2.68v21.47c0,1.48-1.2,2.68-2.68,2.68s-2.68-1.2-2.68-2.68v-21.47c0-4.45,3.6-8.05,8.05-8.05s8.05,3.6,8.05,8.05v21.47c0,7.41-6.01,13.42-13.42,13.42Z"/>
  </g>
</svg>