<svg xmlns="http://www.w3.org/2000/svg" width="20.557" height="22.841" viewBox="0 0 20.557 22.841">
  <g id="calendar" transform="translate(-6 -4)">
    <path id="Path_3844" data-name="Path 3844" d="M11.71,6.284h9.136V4h2.284V6.284h1.142a2.284,2.284,0,0,1,2.284,2.284V24.557a2.284,2.284,0,0,1-2.284,2.284H8.284A2.284,2.284,0,0,1,6,24.557V8.568A2.284,2.284,0,0,1,8.284,6.284H9.426V4H11.71ZM8.284,10.852v13.7H24.273v-13.7Zm2.284,3.426h2.284v2.284H10.568Zm4.568,0H17.42v2.284H15.136Zm4.568,0h2.284v2.284H19.7Zm0,4.568h2.284v2.284H19.7Zm-4.568,0H17.42v2.284H15.136Zm-4.568,0h2.284v2.284H10.568Z" fill="#e4f3ff" fill-rule="evenodd"/>
  </g>
</svg>
