<svg xmlns="http://www.w3.org/2000/svg" width="20" height="17.143" viewBox="0 0 20 17.143">
  <path id="external-link" d="M15.714,10.357v3.572A3.22,3.22,0,0,1,12.5,17.143H3.214A3.1,3.1,0,0,1,.943,16.2,3.1,3.1,0,0,1,0,13.928V4.643A3.1,3.1,0,0,1,.943,2.372a3.1,3.1,0,0,1,2.271-.943h7.857a.344.344,0,0,1,.357.357V2.5a.344.344,0,0,1-.357.357H3.214a1.719,1.719,0,0,0-1.261.524,1.719,1.719,0,0,0-.524,1.261v9.286a1.719,1.719,0,0,0,.524,1.261,1.719,1.719,0,0,0,1.261.524H12.5a1.791,1.791,0,0,0,1.786-1.786V10.357A.344.344,0,0,1,14.643,10h.714a.344.344,0,0,1,.357.357ZM20,.714V6.429a.71.71,0,0,1-1.217.5L16.819,4.967,9.542,12.243a.351.351,0,0,1-.513,0L7.757,10.971a.351.351,0,0,1,0-.513l7.277-7.277L13.069,1.217a.687.687,0,0,1-.212-.5.687.687,0,0,1,.212-.5.687.687,0,0,1,.5-.212h5.714a.687.687,0,0,1,.5.212.687.687,0,0,1,.212.5Z" fill="#090909"/>
</svg>
