<svg xmlns="http://www.w3.org/2000/svg" width="17.634" height="19" viewBox="0 0 17.634 19">
  <g id="Group_16" data-name="Group 16" transform="translate(-125 -610.34)">
    <g id="request-quote" transform="translate(125 610.34)">
      <path id="Path_3839" data-name="Path 3839" d="M18.214,16.571v4.071H7.357V4.357h6.786V3H7.357A1.357,1.357,0,0,0,6,4.357V20.643A1.357,1.357,0,0,0,7.357,22H18.214a1.357,1.357,0,0,0,1.357-1.357V16.571Z" transform="translate(-6 -3)"/>
      <path id="Path_3840" data-name="Path 3840" d="M28.259,5.554,26.02,3.314a1.086,1.086,0,0,0-1.52,0l-9.5,9.5v3.759h3.753l9.5-9.5a1.086,1.086,0,0,0,0-1.52Zm-10.07,9.663H16.357V13.384l6.406-6.412L24.6,8.811Zm7.369-7.363L23.72,6.015l1.54-1.54L27.1,6.314Z" transform="translate(-10.929 -3.002)"/>
    </g>
  </g>
</svg>
