<svg xmlns="http://www.w3.org/2000/svg" width="10.502" height="12.357" viewBox="0 0 10.502 12.357">
  <g id="stars" transform="translate(195.004 550.002)">
    <g id="Group_25" data-name="Group 25">
      <path id="Path_3842" data-name="Path 3842" d="M13.887,18.3a.365.365,0,0,1,.72,0l.677,2.393a3.348,3.348,0,0,0,1.92,2.258l2.033.8a.475.475,0,0,1,0,.847l-2.034.8a3.349,3.349,0,0,0-1.919,2.26l-.677,2.392a.365.365,0,0,1-.72,0l-.677-2.393A3.348,3.348,0,0,0,11.29,25.4l-2.034-.8a.475.475,0,0,1,0-.847l2.034-.8A3.348,3.348,0,0,0,13.21,20.7l.677-2.393Z" transform="translate(-204 -568)" fill="#616161"/>
    </g>
  </g>
</svg>
