<?xml version="1.0" encoding="UTF-8"?>
<svg id="Layer_2" data-name="Layer 2" xmlns="http://www.w3.org/2000/svg" viewBox="0 0 1998.65 1469.34">
  <defs>
    <style>
      .cls-1 {
        fill: #ffc0b1;
      }

      .cls-1, .cls-2, .cls-3, .cls-4, .cls-5, .cls-6, .cls-7, .cls-8, .cls-9, .cls-10 {
        stroke-width: 0px;
      }

      .cls-2 {
        fill: #0c203f;
      }

      .cls-3 {
        fill: #102a54;
      }

      .cls-4 {
        fill: #e6515c;
      }

      .cls-5 {
        fill: #fff;
      }

      .cls-6 {
        fill: #cce6ff;
      }

      .cls-7 {
        fill: #80c0ff;
      }

      .cls-8 {
        fill: #063c72;
      }

      .cls-9 {
        fill: #6cb597;
      }

      .cls-10 {
        fill: #3c94f8;
      }
    </style>
  </defs>
  <g id="_Слой_1" data-name="Слой 1">
    <ellipse class="cls-8" cx="999.33" cy="1331.16" rx="999.33" ry="138.18"/>
    <g>
      <g>
        <g>
          <path class="cls-6" d="m1159.56,330.96c-77.51,0-150.39,30.19-205.2,85-54.81,54.81-85,127.69-85,205.2s30.19,150.39,85,205.2c54.81,54.81,127.69,85,205.2,85s150.39-30.19,205.2-85c54.81-54.81,85-127.69,85-205.2s-30.19-150.39-85-205.2c-54.81-54.81-127.69-85-205.2-85Zm0,583.45c-39.59,0-77.99-7.75-114.15-23.05-34.92-14.77-66.28-35.91-93.21-62.85-26.93-26.93-48.08-58.29-62.85-93.21-15.29-36.15-23.05-74.56-23.05-114.15s7.75-77.99,23.05-114.15c14.77-34.92,35.91-66.28,62.85-93.21,26.93-26.93,58.29-48.08,93.21-62.85,36.16-15.29,74.56-23.05,114.15-23.05s77.99,7.75,114.15,23.05c34.92,14.77,66.28,35.91,93.21,62.85,26.93,26.93,48.08,58.29,62.85,93.21,15.29,36.15,23.05,74.56,23.05,114.15s-7.75,77.99-23.05,114.15c-14.77,34.92-35.91,66.28-62.85,93.21s-58.29,48.08-93.21,62.85c-36.16,15.29-74.56,23.05-114.15,23.05Z"/>
          <path class="cls-6" d="m882.87,344.47c-36.11,36.11-64.36,78.12-83.91,124.37-20.25,47.91-30.69,99.31-30.69,152.32s10.44,104.41,30.69,152.32c19.55,46.25,47.8,88.26,83.91,124.37,36.11,36.11,78.12,64.36,124.37,83.91,47.91,20.25,99.31,30.69,152.32,30.69s104.41-10.44,152.32-30.69c46.25-19.55,88.26-47.8,124.37-83.91,36.11-36.11,64.36-78.12,83.91-124.37,20.25-47.91,30.69-99.31,30.69-152.32s-10.44-104.41-30.69-152.32c-19.55-46.25-47.8-88.26-83.91-124.37-36.11-36.11-78.12-64.36-124.37-83.91-47.91-20.25-99.31-30.69-152.32-30.69s-104.41,10.44-152.32,30.69c-46.25,19.55-88.26,47.8-124.37,83.91Zm276.69,671.05c-53.24,0-104.88-10.43-153.5-30.99-46.96-19.86-89.13-48.3-125.35-84.51-36.22-36.22-64.65-78.39-84.51-125.35-20.56-48.62-30.99-100.26-30.99-153.5s10.43-104.88,30.99-153.5c19.86-46.96,48.3-89.13,84.51-125.35,36.22-36.22,78.39-64.65,125.35-84.51,48.62-20.56,100.26-30.99,153.5-30.99s104.88,10.43,153.5,30.99c46.96,19.86,89.13,48.3,125.35,84.51,36.22,36.22,64.65,78.39,84.51,125.35,20.56,48.62,30.99,100.26,30.99,153.5s-10.43,104.88-30.99,153.5c-19.86,46.96-48.3,89.13-84.51,125.35-36.22,36.22-78.39,64.65-125.35,84.51-48.62,20.56-100.26,30.99-153.5,30.99Z"/>
          <path class="cls-6" d="m811.38,272.98c-45.31,45.31-80.83,98.05-105.55,156.51-25.6,60.54-38.67,125.1-38.67,191.67s13.07,131.13,38.67,191.67c24.72,58.46,60.24,111.2,105.55,156.51,45.31,45.31,98.05,80.83,156.51,105.55,60.54,25.6,125.1,38.67,191.67,38.67s131.13-13.07,191.67-38.67c58.46-24.72,111.2-60.24,156.51-105.55,45.31-45.31,80.83-98.05,105.55-156.51,25.6-60.54,38.67-125.1,38.67-191.67s-13.07-131.13-38.67-191.67c-24.72-58.46-60.24-111.2-105.55-156.51-45.31-45.31-98.05-80.83-156.51-105.55-60.54-25.6-125.1-38.67-191.67-38.67s-131.13,13.07-191.67,38.67c-58.46,24.72-111.2,60.24-156.51,105.55Zm348.18,843.64c-66.89,0-131.77-13.1-192.85-38.94-59-24.95-111.99-60.68-157.49-106.18-45.5-45.5-81.23-98.49-106.18-157.49-25.84-61.08-38.94-125.97-38.94-192.85s13.1-131.77,38.94-192.85c24.95-59,60.68-111.99,106.18-157.49,45.5-45.5,98.49-81.23,157.49-106.18,61.08-25.84,125.97-38.94,192.85-38.94s131.77,13.1,192.86,38.94c59,24.95,111.98,60.68,157.49,106.18,45.5,45.5,81.23,98.49,106.18,157.49,25.84,61.08,38.94,125.97,38.94,192.85s-13.1,131.77-38.94,192.85c-24.95,59-60.68,111.99-106.18,157.49s-98.49,81.23-157.49,106.18c-61.08,25.84-125.97,38.94-192.86,38.94Z"/>
          <path class="cls-6" d="m1159.56,27.65c-80.12,0-157.85,15.69-231.02,46.64-70.67,29.89-134.15,72.69-188.65,127.19-54.51,54.51-97.3,117.98-127.19,188.65-30.95,73.17-46.64,150.89-46.64,231.02s15.69,157.85,46.64,231.02c29.89,70.67,72.69,134.15,127.19,188.65,54.51,54.51,117.98,97.3,188.65,127.19,73.17,30.95,150.89,46.64,231.02,46.64s157.85-15.69,231.02-46.64c70.67-29.89,134.15-72.69,188.65-127.19,54.51-54.51,97.3-117.98,127.19-188.65,30.95-73.17,46.64-150.89,46.64-231.02s-15.69-157.85-46.64-231.02c-29.89-70.67-72.69-134.15-127.19-188.65-54.51-54.51-117.98-97.3-188.65-127.19-73.17-30.95-150.89-46.64-231.02-46.64Zm0,1190.06c-80.53,0-158.66-15.77-232.21-46.88-71.04-30.05-134.84-73.06-189.62-127.85-54.79-54.79-97.8-118.58-127.85-189.62-31.11-73.55-46.88-151.67-46.88-232.21s15.77-158.66,46.88-232.21c30.05-71.04,73.06-134.84,127.85-189.62,54.79-54.79,118.58-97.8,189.62-127.85,73.55-31.11,151.67-46.88,232.21-46.88s158.66,15.77,232.21,46.88c71.04,30.05,134.84,73.06,189.62,127.85,54.79,54.79,97.8,118.58,127.85,189.62,31.11,73.55,46.88,151.67,46.88,232.21s-15.77,158.66-46.88,232.21c-30.05,71.04-73.06,134.84-127.85,189.62-54.79,54.79-118.58,97.8-189.62,127.85-73.55,31.11-151.67,46.88-232.21,46.88Z"/>
        </g>
        <g>
          <g>
            <circle class="cls-7" cx="667.32" cy="672.09" r="21.37" transform="translate(-140.11 1167.15) rotate(-76.72)"/>
            <circle class="cls-7" cx="1719.47" cy="826.34" r="15.46"/>
            <circle class="cls-7" cx="1141.02" cy="26.95" r="26.95"/>
            <circle class="cls-7" cx="1443.79" cy="568.05" r="12.46" transform="translate(21.21 1187.29) rotate(-45)"/>
          </g>
          <circle class="cls-7" cx="1004.78" cy="261.86" r="15"/>
        </g>
      </g>
      <g>
        <g>
          <g>
            <g>
              <path class="cls-1" d="m646.21,986.48l-54-67.36h0c-6.92,5.47-9.15,14.98-5.39,22.96l14.65,31.06-87.48-27.23c-7.2-1.87-14.32,3.32-14.73,10.75l-.7,12.57c-1.37,24.71,16.75,46.22,41.33,49.07l61.5,7.13,26.75,2.9,18.07-41.85Z"/>
              <path class="cls-3" d="m605.55,1007.08c-.56,0-1.12-.27-1.46-.78-10.31-15.3-4.54-32.98-4.29-33.73.31-.92,1.3-1.42,2.22-1.1.92.31,1.41,1.3,1.11,2.22h0c-.06.17-5.45,16.81,3.87,30.65.54.8.33,1.9-.48,2.44-.3.2-.64.3-.98.3Z"/>
            </g>
            <path class="cls-1" d="m923.58,1048.68l-40.32,57.61-243.04-127.45-24.2,46.46,215.39,168.93c18.2,14.28,41.13,21.14,64.19,19.2h0c25.33-2.13,48.65-14.69,64.36-34.67l65.72-83.61-102.09-46.48Z"/>
          </g>
          <path class="cls-3" d="m900.45,1158.28s-.06,0-.09,0c-.97-.05-1.71-.87-1.67-1.84,1.53-30.39-16.49-48.72-16.67-48.9-.69-.68-.69-1.8,0-2.48.68-.69,1.79-.69,2.48,0,.79.78,19.31,19.56,17.7,51.57-.05.94-.82,1.67-1.75,1.67Z"/>
        </g>
        <polygon class="cls-3" points="1032.54 832.46 887.15 1052.83 1010.07 1115 1032.54 832.46"/>
        <g>
          <path class="cls-10" d="m1099.72,797.57h181.16c38.2,0,70.89,27.39,77.59,64.99l82.94,465.76h-441.85l18.11-451.91c1.76-44.04,37.98-78.84,82.06-78.84Z"/>
          <g>
            <path class="cls-1" d="m1114.85,797.57c0,38.54,31.24,69.78,69.78,69.78s69.78-31.24,69.78-69.78h-139.57Z"/>
            <path class="cls-1" d="m1186.26,841.76h0c23.75,0,42.46-20.23,40.62-43.9l-11.03-141.87h-57.6l-12.58,141.42c-2.12,23.84,16.66,44.36,40.59,44.36Z"/>
            <path class="cls-1" d="m1226.51,537.67h-182.21l1.52,11.3c5.25,39.07,6.93,78.57,4.31,117.91-1.25,18.82.09,41.24,9.48,59.37,18.42,35.57,61.3,51.49,97.69,34.75,36.68-16.87,93.44-69.75,69.2-223.33Z"/>
            <path class="cls-3" d="m1124.22,670.99h-16.83c-2.66,0-5.11-1.21-6.73-3.33-1.61-2.12-2.13-4.81-1.42-7.37l14.6-52.7c.28-1.02,1.34-1.62,2.36-1.34,1.02.28,1.62,1.34,1.34,2.36l-14.6,52.7c-.39,1.4-.11,2.87.77,4.03.88,1.16,2.22,1.82,3.67,1.82h16.83c1.06,0,1.92.86,1.92,1.92s-.86,1.92-1.92,1.92Z"/>
            <circle class="cls-3" cx="1147.12" cy="613.57" r="9.25"/>
            <circle class="cls-3" cx="1081.13" cy="611.74" r="9.25"/>
            <path class="cls-3" d="m1148.61,766.28c-.81,0-1.56-.51-1.82-1.32-.33-1.01.22-2.09,1.23-2.42.26-.08,25.79-8.61,42.85-28.67.69-.81,1.9-.9,2.7-.22.81.69.9,1.9.22,2.7-17.78,20.91-43.5,29.48-44.59,29.83-.2.06-.4.1-.59.1Z"/>
            <path class="cls-3" d="m1278.6,537.67c-19.97-51.06-58.43-51.06-66.63-50.44,13.47-8.51,22.43-23.52,22.43-40.63,0-26.53-21.51-48.03-48.03-48.03s-48.03,21.5-48.03,48.03c0,7.09,1.55,13.81,4.3,19.86-15.4.1-30.86,3.13-45.48,9.06-73.3,29.7-52.84,81.5-52.84,81.5,49.14,31.16,113.75,12.24,147.65-1.67l5.9,58.22,13.12,58.03,9.28,41.06s80.76-117.64,58.33-174.99Z"/>
            <path class="cls-3" d="m1100.85,597.84c-1,0-2.01-.31-2.89-.94-19.82-14.44-32.05-3.1-32.56-2.61-1.92,1.91-5.01,1.89-6.92-.03-1.91-1.92-1.89-5.04.03-6.95,6.28-6.25,23.81-13.93,45.23,1.67,2.19,1.6,2.67,4.66,1.08,6.86-.96,1.32-2.45,2.02-3.97,2.02Z"/>
            <path class="cls-3" d="m1164.48,598.15c-1,0-2.01-.31-2.89-.94-19.82-14.44-32.05-3.1-32.56-2.61-1.92,1.91-5.01,1.89-6.92-.03-1.91-1.92-1.89-5.04.03-6.96,6.28-6.25,23.81-13.93,45.23,1.67,2.19,1.6,2.67,4.66,1.08,6.86-.96,1.32-2.45,2.02-3.97,2.02Z"/>
            <g>
              <path class="cls-5" d="m1086.59,686.81s19.07,3.12,37.63.11c0,0-.94,24.37-27.06,20.38-19.28-2.94-10.57-20.5-10.57-20.5Z"/>
              <path class="cls-3" d="m1101.52,709.52c-10.21,0-15.59-5.67-15.86-5.96-.57-.62-.53-1.58.08-2.15.62-.57,1.58-.53,2.15.09.28.3,7.12,7.38,20.34,4.13,13.11-3.23,14.45-18.65,14.46-18.81.06-.84.8-1.47,1.64-1.4.84.06,1.47.8,1.4,1.64-.01.18-1.54,17.79-16.77,21.54-2.71.67-5.2.94-7.45.94Z"/>
            </g>
            <g>
              <g>
                <g>
                  <path class="cls-10" d="m1227.01,585.35c18.26,2.76,32.34,20.35,32.34,41.64,0,23.2-16.73,42.02-37.36,42.02s-37.36-18.81-37.36-42.02,16.73-42.02,37.36-42.02c1.7,0,3.38.13,5.02.38"/>
                  <path class="cls-3" d="m1218.82,668.84c-.22,0-.45-.04-.67-.13-15.1-5.88-25.25-22.65-25.25-41.73,0-24.19,16.4-43.86,36.56-43.86,1.02,0,1.85.83,1.85,1.85s-.83,1.85-1.85,1.85c-18.12,0-32.86,18.02-32.86,40.17,0,17.56,9.2,32.95,22.89,38.28.95.37,1.42,1.44,1.05,2.39-.28.73-.98,1.18-1.72,1.18Z"/>
                </g>
                <path class="cls-3" d="m1195.28,650.83c-1.02-.29-2.08.3-2.37,1.32-.1.36-9.7,33.16-37.46,53.09-2.69-3.87-10.92-4.51-19.38-1.28-9.18,3.52-15.14,10.26-13.3,15.07,1.84,4.81,10.78,5.86,19.96,2.34,7.34-2.81,12.6-7.68,13.48-11.97,29.96-20.47,39.93-54.63,40.38-56.2.29-1.02-.3-2.08-1.32-2.37Z"/>
                <path class="cls-10" d="m1213.46,586.07s-4.54-98.07-116.31-110.55c0,0,15.63-7.5,37.53-8.74,0,0,92.84,24.01,87.31,118.19l-8.53,1.1Z"/>
              </g>
              <ellipse class="cls-3" cx="1229.47" cy="626.08" rx="9.95" ry="12.51"/>
            </g>
            <g>
              <path class="cls-3" d="m1184.63,867.35s20.85,52.04,54.78,38.84c33.93-13.2,35.82-108.62,35.82-108.62h-20.81s-5.81,58.28-69.78,69.78Z"/>
              <path class="cls-3" d="m1183.63,867.35s-20.85,52.04-54.78,38.84c-33.93-13.2-35.82-108.62-35.82-108.62h20.81s5.81,58.28,69.78,69.78Z"/>
            </g>
          </g>
          <path class="cls-3" d="m1203.71,1330.24c-1.02,0-1.87-.8-1.91-1.83l-20.08-460.97c-.05-1.06.77-1.95,1.83-2,1.04-.07,1.95.77,2,1.83l20.08,460.97c.05,1.06-.77,1.95-1.83,2-.03,0-.06,0-.09,0Z"/>
          <circle class="cls-3" cx="1209.71" cy="957.95" r="10.11" transform="translate(-323.06 1135.97) rotate(-45)"/>
          <circle class="cls-3" cx="1213.82" cy="1052.83" r="10.11" transform="translate(-388.94 1166.67) rotate(-45)"/>
          <circle class="cls-3" cx="1217.93" cy="1147.71" r="10.11"/>
          <circle class="cls-3" cx="1222.05" cy="1242.59" r="10.11" transform="translate(-520.72 1228.07) rotate(-45)"/>
        </g>
        <path class="cls-3" d="m1336.43,820.46l192.46,199.92-129.61,87.6s-130.38-117.57-62.86-287.52Z"/>
        <g>
          <g>
            <g>
              <path class="cls-1" d="m1769.95,927.64l42.04-75.4h0c7.73,4.24,11.52,13.25,9.14,21.74l-9.28,33.07,81.74-41.41c6.79-3.04,14.67.89,16.31,8.15l2.78,12.28c5.46,24.14-8.83,48.36-32.6,55.26l-59.45,17.26-25.9,7.31-24.78-38.26Z"/>
              <path class="cls-3" d="m1813.17,941.22c-.24,0-.49-.05-.72-.16-.88-.4-1.27-1.44-.87-2.32,6.91-15.24-1.19-30.71-1.28-30.86-.46-.85-.14-1.92.72-2.38.86-.46,1.92-.13,2.38.72.37.69,9,17.17,1.38,33.97-.29.65-.93,1.03-1.6,1.03Z"/>
            </g>
            <path class="cls-1" d="m1506.78,1035.11l49.35,50.1,218.45-166.1,31.59,41.79-184.29,202.41c-15.57,17.11-37.05,27.68-60.1,29.61h0c-25.33,2.12-50.41-6.39-69.23-23.49l-78.71-71.52,92.94-62.81Z"/>
          </g>
          <path class="cls-3" d="m1547.53,1139.36c-.81,0-1.53-.56-1.71-1.38-6.91-31.3,8.23-52.89,8.88-53.79.56-.79,1.66-.97,2.45-.4.79.56.97,1.66.4,2.45-.19.27-14.86,21.32-8.3,50.99.21.95-.39,1.88-1.34,2.09-.13.03-.25.04-.38.04Z"/>
        </g>
      </g>
    </g>
    <g>
      <g>
        <rect class="cls-2" x="67.99" y="747.05" width="686.85" height="461.83" rx="48.82" ry="48.82"/>
        <rect class="cls-3" x="344.53" y="1094.16" width="127.47" height="221.36" rx="20.9" ry="20.9"/>
      </g>
      <rect class="cls-2" x="255.23" y="1301.46" width="312.38" height="28.62" rx="12.71" ry="12.71"/>
    </g>
    <g>
      <circle class="cls-6" cx="454.92" cy="375.01" r="221.87"/>
      <g>
        <path class="cls-4" d="m532.46,295.73h-155.05c-17.52,0-32.12,12.03-36.22,28.13v-.03s-83.99,151.94-83.99,151.94c0,0,22.49,40.17,41.99,57.27l46.74-67.37-.37-10.95,5.34,116.32c31.02,16.49,66.42,25.84,104.01,25.84s73.17-9.4,104.25-25.97l10.64-236.11c.96-21.29-16.04-39.07-37.35-39.07Z"/>
        <path class="cls-4" d="m656.31,362.32l-93.66-170.09-35.74,15.98,40.95,117.58-1.52,86.09,57.71,5.11c15.38,5.08,32.44-4.03,36.22-20.48h0c2.64-11.51,1.25-23.58-3.95-34.19Z"/>
        <path class="cls-1" d="m558.56,194.06l-.68-11.35c-.55-9.19-3.71-18.02-9.1-25.48l-6.95-9.6-5.18,37.74,3.77,19.18,18.13-10.49Z"/>
        <path class="cls-3" d="m541.79,205.77c-.66,0-1.2-.52-1.22-1.19l-.57-18.97v-.05s1.98-37.99,1.98-37.99c.04-.68.61-1.2,1.29-1.16.68.04,1.19.61,1.16,1.29l-1.98,37.94.56,18.87c.02.68-.51,1.24-1.19,1.26-.01,0-.02,0-.04,0Z"/>
        <g>
          <path class="cls-1" d="m454.13,323.08h0c-15.15.02-27.1-12.87-25.95-27.97l6.92-90.51,36.74-.05,8.14,90.2c1.37,15.2-10.59,28.31-25.85,28.33Z"/>
          <path class="cls-1" d="m428.21,129.13l116.23-.14-.96,7.21c-3.32,24.93-4.36,50.13-2.66,75.22.81,12-.03,26.31-6,37.88-11.72,22.7-39.06,32.89-62.29,22.24-23.41-10.73-59.66-44.42-44.32-142.41Z"/>
          <path class="cls-3" d="m493.57,214.1c-.68,0-1.22-.55-1.22-1.22,0-.68.55-1.22,1.22-1.23h10.73c.93-.01,1.78-.44,2.34-1.18.56-.74.74-1.67.49-2.57l-9.35-33.61c-.18-.65.2-1.33.85-1.51.65-.18,1.33.2,1.51.85l9.35,33.61c.46,1.64.13,3.35-.9,4.7-1.03,1.35-2.59,2.13-4.29,2.13h-10.73s0,.01,0,.01Z"/>
          <circle class="cls-3" cx="478.91" cy="177.49" r="5.9" transform="translate(14.77 390.63) rotate(-45)"/>
          <path class="cls-3" d="m526.91,176.26c0,3.26-2.63,5.9-5.89,5.91s-5.9-2.63-5.91-5.89,2.63-5.91,5.89-5.91c3.26,0,5.9,2.63,5.91,5.89Z"/>
          <path class="cls-3" d="m478.08,274.9c-.13,0-.25-.02-.38-.06-.69-.23-17.11-5.67-28.46-18.99-.44-.51-.38-1.29.14-1.73.52-.44,1.29-.38,1.73.14,10.9,12.78,27.2,18.2,27.36,18.25.64.21.99.9.78,1.54-.17.52-.65.85-1.16.85Z"/>
          <path class="cls-3" d="m440.63,133.54s1.72,40.89-8.03,47.35c-9.75,6.46-13-5.93-13-5.93,0,0-13.88-41.81,8.37-51.1,13.63-5.69,12.66,9.68,12.66,9.68Z"/>
          <path class="cls-3" d="m502.77,236.61s-.04,0-.06,0c-.49-.02-12.06-.73-22.09-16.23-.37-.57-.2-1.32.36-1.69.57-.37,1.32-.2,1.69.36,9.3,14.37,20.05,15.11,20.15,15.12.67.04,1.19.61,1.16,1.28-.03.65-.57,1.16-1.22,1.16Z"/>
          <path class="cls-3" d="m418.11,133.68s-10.18-55.37,41.88-61.34c52.06-5.98,108.01,1.29,120.6-18.45,0,0,14.79,68.45-36.15,75.1-50.94,6.65-126.32,4.69-126.32,4.69Z"/>
          <g>
            <path class="cls-3" d="m476.32,194.67c-9.06,0-17.21-6.35-19.12-15.57-1.06-5.11-.07-10.33,2.8-14.69,2.86-4.36,7.25-7.35,12.36-8.41,5.11-1.06,10.33-.07,14.69,2.8,4.36,2.86,7.35,7.25,8.41,12.36h0c2.19,10.55-4.61,20.91-15.16,23.1-1.33.28-2.66.41-3.98.41Zm.04-36.63c-1.17,0-2.34.12-3.51.36-4.47.93-8.31,3.54-10.81,7.36-2.5,3.82-3.37,8.38-2.44,12.85,1.91,9.23,10.98,15.18,20.2,13.26,4.47-.93,8.31-3.54,10.81-7.36s3.37-8.38,2.44-12.85h0c-.93-4.47-3.54-8.31-7.36-10.81-2.82-1.85-6.05-2.81-9.34-2.81Z"/>
            <path class="cls-3" d="m523.51,195.28c-9.06,0-17.21-6.35-19.12-15.57-2.19-10.55,4.61-20.91,15.16-23.1,5.11-1.06,10.33-.07,14.69,2.8,4.36,2.86,7.35,7.25,8.41,12.36h0c1.06,5.11.07,10.33-2.79,14.69-2.86,4.36-7.25,7.35-12.36,8.41-1.33.28-2.66.41-3.98.41Zm.04-36.63c-1.17,0-2.34.12-3.51.36-9.23,1.91-15.17,10.98-13.26,20.2.93,4.47,3.54,8.31,7.36,10.81,3.82,2.5,8.38,3.37,12.85,2.44,4.47-.93,8.31-3.54,10.81-7.36,2.5-3.82,3.37-8.38,2.44-12.85h0c-.93-4.47-3.54-8.31-7.36-10.81-2.82-1.85-6.05-2.81-9.34-2.81Z"/>
            <path class="cls-3" d="m492.58,167.92c-.41,0-.81-.21-1.04-.58-.35-.58-.18-1.33.4-1.68.34-.21,8.43-5.1,15.22-.16.55.4.67,1.16.27,1.71-.4.55-1.16.67-1.71.27-5.44-3.96-12.42.22-12.49.27-.2.12-.42.18-.64.18Z"/>
          </g>
          <path class="cls-3" d="m459.21,169.87s-.1,0-.15,0l-26.32-3.2c-.67-.08-1.15-.69-1.07-1.36.08-.67.69-1.15,1.36-1.07l26.32,3.2c.67.08,1.15.69,1.07,1.36-.08.62-.6,1.08-1.21,1.08Z"/>
          <g>
            <path class="cls-1" d="m435.61,177.54c.01,10.52-5.79,19.05-12.97,19.06-7.17,0-13-8.51-13.01-19.02-.01-10.52,5.79-19.05,12.97-19.06,7.17,0,13,8.51,13.01,19.02Z"/>
            <path class="cls-3" d="m425.89,197.24c-.61,0-1.14-.46-1.21-1.08-.08-.67.39-1.27,1.06-1.35.1-.02,3.57-.66,6.43-6.86.28-.61,1.01-.88,1.62-.6.61.28.88,1.01.6,1.62-3.52,7.62-8.16,8.24-8.36,8.26-.05,0-.1,0-.14,0Z"/>
          </g>
        </g>
      </g>
      <path class="cls-3" d="m566.33,413.11s-.04,0-.06,0c-.68-.03-1.2-.6-1.17-1.28l1.66-36.87c.03-.68.6-1.2,1.28-1.17.68.03,1.2.6,1.17,1.28l-1.66,36.87c-.03.66-.57,1.17-1.22,1.17Z"/>
      <path class="cls-3" d="m624.04,418.22c-.23,0-.45-.06-.66-.19-13.45-8.58-27.93-29.11-43.05-61.01-11.22-23.67-18.62-45.12-18.69-45.34-.22-.64.12-1.34.76-1.55.64-.22,1.34.12,1.55.76.29.85,29.52,85.15,60.74,105.08.57.36.74,1.12.37,1.69-.23.37-.63.57-1.03.57Z"/>
      <path class="cls-3" d="m345.94,466.89c-.68,0-1.22-.55-1.22-1.22v-76.5c0-.68.55-1.22,1.22-1.22s1.22.55,1.22,1.22v76.5c0,.68-.55,1.22-1.22,1.22Z"/>
    </g>
    <g>
      <path class="cls-5" d="m1498.54,373.67c-96.35,0-174.45,56.82-174.45,126.9,0,43.77,30.47,82.37,76.83,105.18l-32.84,44.84c-3.07,4.19.8,9.91,5.83,8.63l126.76-23.29c99.24-18.92,172.33-65.28,172.33-135.36s-78.11-126.9-174.45-126.9Z"/>
      <path class="cls-6" d="m1364.52,660.93c-2.3,0-4.46-1.12-5.81-3.12-1.69-2.5-1.63-5.69.15-8.12l31.77-43.37c-47.66-24.02-76.05-63.44-76.05-105.74,0-34.4,18.37-66.7,51.73-90.97,33.21-24.16,77.34-37.46,124.26-37.46s91.05,13.3,124.26,37.46c33.36,24.26,51.73,56.57,51.73,90.97s-16.68,63.74-49.57,88.09c-29.9,22.14-72.78,39-124,48.77l-126.72,23.28c-.58.14-1.16.21-1.73.21Zm126.04-285.73c-95.35,0-172.93,56.24-172.93,125.37,0,41.59,28.4,80.4,75.97,103.81l1.63.8-33.92,46.31c-1.23,1.68-.85,3.48-.09,4.61.76,1.13,2.29,2.15,4.31,1.64l.1-.02,126.76-23.29c50.77-9.68,93.22-26.36,122.75-48.22,32.07-23.75,48.33-52.56,48.33-85.64,0-69.13-77.57-125.37-172.93-125.37Z"/>
      <g>
        <rect class="cls-6" x="1380.75" y="465.4" width="221.5" height="14.25" rx="1.76" ry="1.76" transform="translate(2983 945.05) rotate(180)"/>
        <rect class="cls-6" x="1380.75" y="496.91" width="221.5" height="14.25" rx="1.76" ry="1.76" transform="translate(2983 1008.06) rotate(180)"/>
        <rect class="cls-6" x="1484.46" y="528.41" width="117.79" height="14.25" rx="1.29" ry="1.29" transform="translate(3086.72 1071.08) rotate(180)"/>
      </g>
    </g>
    <g>
      <g>
        <path class="cls-9" d="m1891,1101.27c-24.91,9.38-50.06,18.89-73.05,32.16,3.26-6.78,5.83-13.85,7.54-21.13,8.15-34.72-.3-74.25-22-102.56-17.8,27.62-35.79,55.61-46.25,86.76-.12.37-.24.74-.36,1.12-2.08-3.84-4.3-7.6-6.65-11.25-17.76-27.65-42.03-50.4-66.05-72.83-14.13,32.75-12.66,73.15,3.73,104.82,1.43,2.76,3,5.45,4.68,8.06-19.31-9.77-39.77-17.5-60.07-25.15-.57,35.66,16.19,72.45,43.41,95.48,23.06,19.51,55.22,28.12,85.83,26.38,30.61,1.75,62.77-6.87,85.83-26.38,27.23-23.04,43.99-59.82,43.41-95.48Z"/>
        <path class="cls-3" d="m1783.75,1218.96c-.57,0-1.1-.38-1.26-.95-13.11-45.87-89.78-90.01-90.56-90.45-.63-.36-.85-1.16-.49-1.79.36-.63,1.16-.85,1.79-.49.2.11,19.77,11.32,40.73,28.13,28.24,22.66,45.42,44.15,51.05,63.88.2.7-.2,1.42-.9,1.62-.12.03-.24.05-.36.05Z"/>
        <path class="cls-3" d="m1783.75,1176.69c-.68,0-1.25-.52-1.31-1.21-2.41-30.06-26.14-77.92-26.38-78.4-.32-.65-.06-1.44.59-1.76.65-.32,1.44-.06,1.76.59.24.48,24.2,48.8,26.65,79.36.06.72-.48,1.35-1.2,1.41-.04,0-.07,0-.11,0Z"/>
        <path class="cls-3" d="m1780.33,1195.88c-.13,0-.26-.02-.39-.06-.69-.22-1.08-.95-.86-1.64,8.93-28.71,37.6-61.29,37.89-61.62.48-.54,1.31-.6,1.85-.11.54.48.59,1.31.11,1.85-.28.32-28.58,32.5-37.34,60.66-.17.56-.69.92-1.25.92Z"/>
      </g>
      <path class="cls-3" d="m1717.68,1214.94h100.26v89.59c0,13.31-10.8,24.11-24.11,24.11h-52.04c-13.31,0-24.11-10.8-24.11-24.11v-89.59h0Z"/>
    </g>
    <g>
      <path class="cls-6" d="m1704.29,173.99c0-56.81-46.06-102.87-102.87-102.87s-102.87,46.06-102.87,102.87c0,30.85,13.58,58.52,35.08,77.37,1.88-29.63,22.73-54.09,50.55-61.37-12.81-6.36-21.63-19.56-21.63-34.84,0-21.47,17.4-38.87,38.87-38.87s38.87,17.4,38.87,38.87c0,15.27-8.81,28.48-21.63,34.84,27.82,7.28,48.67,31.75,50.55,61.37,21.5-18.85,35.08-46.53,35.08-77.37Z"/>
      <path class="cls-7" d="m1618.66,189.99c12.82-6.36,21.63-19.56,21.63-34.84,0-21.47-17.4-38.87-38.87-38.87s-38.87,17.4-38.87,38.87c0,15.27,8.81,28.48,21.63,34.84-27.82,7.28-48.67,31.75-50.55,61.37,18.1,15.87,41.82,25.5,67.79,25.5s49.69-9.63,67.79-25.5c-1.88-29.63-22.73-54.09-50.55-61.37Z"/>
    </g>
    <path class="cls-2" d="m743.09,1302.84h371.6c3.86,0,6.99,3.13,6.99,6.99v14.33c0,3.86-3.13,6.99-6.99,6.99h-371.6c-3.86,0-6.99-3.13-6.99-6.99v-14.33c0-3.86,3.13-6.99,6.99-6.99Z"/>
    <g>
      <path class="cls-2" d="m1347.24,1264.08h2.36c22.59,0,40.92,18.34,40.92,40.92v24.8h-84.21v-24.8c0-22.59,18.34-40.92,40.92-40.92Z"/>
      <path class="cls-5" d="m1348.42,1315.64c-.65,0-1.18-.53-1.18-1.18v-50.38c0-.65.53-1.18,1.18-1.18s1.18.53,1.18,1.18v50.38c0,.65-.53,1.18-1.18,1.18Z"/>
    </g>
  </g>
</svg>