<?xml version="1.0" encoding="UTF-8"?>
<svg id="Layer_2" data-name="Layer 2" xmlns="http://www.w3.org/2000/svg" viewBox="0 0 54.57 38.05">
  <defs>
    <style>
      .cls-1 {
        fill: none;
        stroke: #fff;
        stroke-linecap: round;
        stroke-linejoin: round;
        stroke-width: 5px;
      }
    </style>
  </defs>
  <g id="Layer_1-2" data-name="Layer 1">
    <path class="cls-1" d="m38.3,13.52l7.1-4.26c2.18-1.31,3.28-1.97,4.17-1.88.78.07,1.5.48,1.96,1.11.53.73.53,2,.53,4.55v11.97c0,2.55,0,3.82-.53,4.55-.47.63-1.18,1.04-1.96,1.11-.9.08-1.99-.57-4.17-1.88l-7.1-4.26m-26.99,11.02h18.18c3.08,0,4.63,0,5.81-.6,1.04-.53,1.88-1.37,2.41-2.41.6-1.18.6-2.72.6-5.81v-15.42c0-3.08,0-4.63-.6-5.81-.53-1.04-1.37-1.88-2.41-2.41-1.18-.6-2.72-.6-5.81-.6H11.31c-3.08,0-4.63,0-5.81.6-1.04.53-1.88,1.37-2.41,2.41-.6,1.18-.6,2.72-.6,5.81v15.42c0,3.08,0,4.63.6,5.81.53,1.04,1.37,1.88,2.41,2.41,1.18.6,2.72.6,5.81.6Z"/>
  </g>
</svg>